<?xml version="1.0" standalone="no"?>
<!DOCTYPE svg PUBLIC "-//W3C//DTD SVG 20010904//EN"
 "http://www.w3.org/TR/2001/REC-SVG-20010904/DTD/svg10.dtd">
<svg version="1.0" xmlns="http://www.w3.org/2000/svg"
 width="256.000000pt" height="256.000000pt" viewBox="0 0 256.000000 256.000000"
 preserveAspectRatio="xMidYMid meet">
<metadata>
Created by potrace 1.14, written by Peter Selinger 2001-2017
</metadata>
<g transform="translate(0.000000,256.000000) scale(0.100000,-0.100000)"
fill="#000000" stroke="none">
<path d="M1140 2554 c-238 -37 -387 -92 -565 -209 -294 -194 -498 -508 -558
-855 -14 -80 -16 -343 -4 -395 3 -11 8 -40 13 -65 4 -25 8 -47 9 -50 1 -3 5
-18 9 -35 4 -16 12 -40 18 -51 8 -16 6 -35 -5 -70 -56 -172 -67 -274 -31 -288
9 -3 62 -6 119 -6 57 0 105 -4 107 -9 1 -5 19 -28 38 -51 185 -226 456 -389
742 -445 112 -23 339 -27 451 -9 249 41 506 169 682 341 54 53 138 148 143
164 2 5 52 9 110 9 59 0 113 4 121 9 7 5 14 23 16 40 2 34 -24 156 -50 234
-15 44 -15 51 5 114 43 145 61 383 38 530 -85 562 -505 990 -1068 1088 -42 7
-304 14 -340 9z m310 -267 c192 -36 380 -127 509 -246 41 -38 43 -42 29 -58
-9 -10 -37 -54 -63 -98 -47 -78 -61 -104 -113 -195 -54 -97 -47 -91 -94 -74
-24 9 -50 17 -58 19 -75 20 -145 35 -186 42 -63 10 -324 10 -388 0 l-50 -8
-198 198 c-109 109 -198 201 -198 204 0 11 114 86 185 122 84 42 216 85 288
93 29 4 54 8 56 10 6 5 248 -3 281 -9z m-945 -639 c47 -83 82 -154 78 -158 -5
-3 -43 -32 -86 -65 -44 -32 -115 -95 -159 -139 l-80 -81 6 120 c6 120 13 167
42 260 23 73 96 225 105 219 5 -2 47 -73 94 -156z m1744 -53 c34 -107 48 -186
50 -308 l2 -89 -48 54 c-61 68 -167 162 -227 200 -25 17 -46 36 -46 43 0 6 39
80 87 164 l87 152 33 -63 c18 -35 46 -103 62 -153z m-344 -1085 c21 -23 15
-31 -66 -83 -273 -174 -596 -213 -899 -109 -102 35 -231 110 -325 187 l-30 25
651 0 c633 0 651 -1 669 -20z"/>
</g>
</svg>
